<svg xmlns="http://www.w3.org/2000/svg" width="48" height="61.124" viewBox="0 0 48 61.124">
  <g id="Grupo_271" data-name="Grupo 271" transform="translate(-143 -138.876)">
    <g id="Grupo_203" data-name="Grupo 203" transform="translate(-27 10)">
      <g id="Trazado_659" data-name="Trazado 659" transform="translate(170 129)" fill="none">
        <path d="M3.727,0,43.981,15.633a2.377,2.377,0,0,1,.913.215c1.507.528,2.814,3.362,2.814,5.806V56c0,2.761-1.669,5-3.727,5L3.727,47.286C1.669,47.286,0,43.748,0,40.987V5C0,2.239,1.669,0,3.727,0Z" stroke="none"/>
        <path d="M 5.000003814697266 5.858097076416016 L 5.000003814697266 40.987060546875 C 5.000003814697266 41.50414276123047 5.180259704589844 42.13639450073242 5.371166229248047 42.56351852416992 L 42.70800399780273 55.28413391113281 L 42.70800399780273 21.65356063842773 C 42.70800399780273 21.22381973266602 42.5821647644043 20.75113296508789 42.44587707519531 20.4002685546875 L 5.000003814697266 5.858097076416016 M 3.727191925048828 0 L 43.98081588745117 15.63256072998047 C 44.2175407409668 15.63256072998047 44.44911575317383 15.67567443847656 44.89360427856445 15.84796142578125 C 46.40102767944336 16.37568664550781 47.70800399780273 19.20970153808594 47.70800399780273 21.65356063842773 L 47.70800399780273 56 C 47.70800399780273 58.76142501831055 46.03929138183594 61 43.98081588745117 61 L 3.727191925048828 47.28563690185547 C 1.668716430664062 47.28563690185547 3.814697265625e-06 43.74848937988281 3.814697265625e-06 40.987060546875 L 3.814697265625e-06 5 C 3.814697265625e-06 2.238574981689453 1.668716430664062 0 3.727191925048828 0 Z" stroke="none" fill="#022F6E"/>
      </g>
      <g id="Trazado_660" data-name="Trazado 660" transform="translate(193 129)" fill="none">
        <path d="M4.167,2.6,22,0c2.137-.421,3,.24,3,1.9v9.858c0,1.657-.5,2.406-2.158,2.406L4.167,6.456c-1.619-.822-1.98-1.317-1.98-2.974L3.03,3.01S1.5,3.18,4.167,2.6Z" stroke="none"/>
        <path d="M 21 4.188106536865234 L 12.25016212463379 5.46393871307373 L 21 9.074319839477539 L 21 4.188106536865234 M 23.11330986022949 -0.123539924621582 C 24.44252395629883 -0.1236028671264648 25 0.564936637878418 25 1.896968841552734 L 25 11.75512886047363 C 25 13.41197967529297 24.4991397857666 14.16161918640137 22.8422794342041 14.16161918640137 L 4.166500091552734 6.455569267272949 C 2.547359466552734 5.6337890625 2.186029434204102 5.13853931427002 2.186029434204102 3.481689453125 L 3.029779434204102 3.010008811950684 C 3.029777526855469 3.010007858276367 1.5 3.179929733276367 4.166500091552734 2.600338935852051 L 22 -9.5367431640625e-07 C 22.41898918151855 -0.08256340026855469 22.78918075561523 -0.1235246658325195 23.11330986022949 -0.123539924621582 Z" stroke="none" fill="#022F6E"/>
      </g>
    </g>
  </g>
</svg>
