<svg width="96" height="67" viewBox="0 0 96 67" fill="none" xmlns="http://www.w3.org/2000/svg">
<path d="M51.8335 2.5V21H70.3335" stroke="#2B2C2C" stroke-width="5" stroke-linecap="round" stroke-linejoin="round"/>
<path d="M2.5 40H30L35.5 27.5L41.5 50.5L48.5 33.5L54.5 47.5L59 40H81M91 40H93.5" stroke="#2B2C2C" stroke-width="5" stroke-linecap="round" stroke-linejoin="round"/>
<path fill-rule="evenodd" clip-rule="evenodd" d="M21.0384 2.53841C22.6637 0.913092 24.8681 0 27.1667 0H51.8333C52.4964 0 53.1323 0.263392 53.6011 0.732233L72.1011 19.2322C72.5699 19.7011 72.8333 20.337 72.8333 21V31.5H67.8333V22.0355L50.7978 5H27.1667C26.1942 5 25.2616 5.38631 24.5739 6.07394C23.8863 6.76157 23.5 7.69421 23.5 8.66667V42.5H18.5V8.66667C18.5 6.36812 19.4131 4.16372 21.0384 2.53841ZM67.8333 37.5V58C67.8333 58.9725 67.447 59.9051 66.7594 60.5927C66.0718 61.2804 65.1391 61.6667 64.1667 61.6667H27.1667C26.1942 61.6667 25.2616 61.2804 24.5739 60.5927C23.8863 59.9051 23.5 58.9725 23.5 58V48.5H18.5V58C18.5 60.2985 19.4131 62.5029 21.0384 64.1283C22.6637 65.7536 24.8681 66.6667 27.1667 66.6667H64.1667C66.4652 66.6667 68.6696 65.7536 70.2949 64.1283C71.9202 62.5029 72.8333 60.2985 72.8333 58V37.5H67.8333Z" fill="#2B2C2C"/>
</svg>
