<svg width="275" height="258" viewBox="0 0 275 258" fill="none" xmlns="http://www.w3.org/2000/svg">
<path d="M62.542 10.1895C121.01 19.0581 165.264 -1.1321 193.503 3.20784C221.743 7.54778 278.789 30.5683 261.448 143.407C244.106 256.245 161.948 260.585 130.866 255.868C-14.405 233.696 -41.0331 -5.56639 62.542 10.1895Z" fill="#EFEFEF"/>
<path d="M264.575 113.593H104.332C102.911 113.593 101.679 114.442 101.11 115.763C100.542 117.084 100.826 118.594 101.868 119.537L121.768 139.35V214.167C121.768 219.922 126.412 224.545 132.192 224.545H264.575C270.356 224.545 274.999 219.922 274.999 214.167V123.971C274.999 118.311 270.261 113.593 264.575 113.593ZM156.546 141.331H208.76C210.655 141.331 212.266 142.841 212.266 144.822C212.266 146.803 210.75 148.313 208.76 148.313H156.546C154.651 148.313 153.04 146.803 153.04 144.822C153.04 142.841 154.651 141.331 156.546 141.331ZM156.546 165.673H173.982C175.878 165.673 177.489 167.182 177.489 169.163C177.489 171.05 175.972 172.654 173.982 172.654H156.546C154.651 172.654 153.04 171.145 153.04 169.163C153.04 167.182 154.651 165.673 156.546 165.673ZM219.279 196.901H156.546C154.651 196.901 153.04 195.392 153.04 193.41C153.04 191.524 154.556 189.92 156.546 189.92H219.279C221.174 189.92 222.785 191.429 222.785 193.41C222.785 195.297 221.174 196.901 219.279 196.901ZM240.126 196.901H233.114C231.219 196.901 229.608 195.392 229.608 193.41C229.608 191.524 231.124 189.92 233.114 189.92H240.126C242.022 189.92 243.633 191.429 243.633 193.41C243.633 195.297 242.116 196.901 240.126 196.901ZM240.126 172.56H187.912C186.017 172.56 184.406 171.05 184.406 169.069C184.406 167.182 185.922 165.578 187.912 165.578H240.126C242.022 165.578 243.633 167.088 243.633 169.069C243.633 171.05 242.116 172.56 240.126 172.56ZM240.126 148.313H222.69C220.795 148.313 219.184 146.803 219.184 144.822C219.184 142.841 220.7 141.331 222.69 141.331H240.126C242.022 141.331 243.633 142.841 243.633 144.822C243.633 146.803 242.116 148.313 240.126 148.313Z" fill="#52CEC2"/>
<path d="M207.623 82.4589C207.623 67.4578 198.621 53.8719 184.691 47.928C194.356 41.5125 198.526 29.5305 195.209 18.4919C191.798 7.54772 181.469 0 169.908 0C158.347 0 148.112 7.54772 144.701 18.6806C141.384 29.7192 145.648 41.7012 155.314 48.1167C141.195 54.438 132.192 68.3069 132.287 83.6854V86.3271C132.287 92.554 137.309 97.5543 143.564 97.5543H196.252C202.506 97.5543 207.528 92.554 207.528 86.3271L207.623 82.4589ZM151.145 26.2283C151.145 18.6806 155.693 11.7933 162.8 8.86858C169.813 5.94383 177.962 7.54772 183.269 12.9255C188.671 18.3032 190.281 26.3227 187.344 33.3043C184.406 40.286 177.583 44.909 169.908 44.909C159.579 45.0033 151.145 36.6065 151.145 26.2283ZM200.042 86.2327C200.042 88.3084 198.336 90.0066 196.252 90.0066H143.564C141.479 90.0066 139.773 88.3084 139.773 86.2327V83.6854C139.584 75.5716 142.711 67.7408 148.397 61.8913C154.082 56.0418 161.758 52.6454 169.908 52.551C186.491 52.551 200.042 65.9482 200.042 82.5532V86.2327Z" fill="#595959"/>
<path d="M23.2157 184.164V187.089C23.2157 194.165 28.9962 199.92 36.1034 199.92H96.0879C103.195 199.92 108.976 194.165 108.976 187.089V182.844C108.976 165.767 98.7412 150.294 82.9159 143.595C93.9083 136.236 98.7412 122.65 94.8559 110.102C90.9707 97.5543 79.3149 88.9688 66.143 88.9688C52.971 88.9688 41.3153 97.6486 37.43 110.197C33.6395 122.745 38.4724 136.425 49.4648 143.69C33.3553 150.766 23.0262 166.71 23.2157 184.164ZM44.632 118.782C44.632 110.197 49.8439 102.366 57.8987 99.0638C65.9535 95.7617 75.1454 97.5543 81.3049 103.687C87.4645 109.819 89.265 118.971 85.9483 126.99C82.6316 135.01 74.7664 140.199 66.143 140.199C54.2029 140.199 44.632 130.576 44.632 118.782ZM66.0482 148.69C75.1454 148.69 83.8635 152.275 90.3074 158.691C96.7512 165.106 100.352 173.786 100.352 182.844V187.089C100.352 189.448 98.4569 191.335 96.0879 191.335H36.0086C33.6395 191.335 31.7443 189.448 31.7443 187.089V184.164C31.5548 174.918 35.061 165.956 41.5048 159.351C47.9486 152.747 56.7615 148.879 66.0482 148.69Z" fill="#595959"/>
<path d="M34.3976 75.0055H105.943C112.197 75.0055 117.22 70.0051 117.22 63.7783V27.8322L138.731 6.41557C139.773 5.37775 140.152 3.77386 139.584 2.35866C138.92 0.943465 137.594 0 136.077 0H34.3976C28.1432 0 23.1208 5.00037 23.1208 11.2272V63.6839C23.1208 70.0051 28.1432 75.0055 34.3976 75.0055ZM30.6071 11.2272C30.6071 9.15162 32.3128 7.45338 34.3976 7.45338H126.98L110.776 23.5866C110.113 24.2471 109.639 25.2849 109.639 26.2283V63.6839C109.639 65.7595 107.933 67.4578 105.848 67.4578H34.3976C32.3128 67.4578 30.6071 65.7595 30.6071 63.6839V11.2272Z" fill="#595959"/>
<path d="M49.4648 30.0022H90.8759C92.9607 30.0022 94.6664 28.304 94.6664 26.2283C94.6664 24.1527 92.9607 22.4545 90.8759 22.4545H49.4648C47.38 22.4545 45.6743 24.1527 45.6743 26.2283C45.6743 28.304 47.38 30.0022 49.4648 30.0022Z" fill="#595959"/>
<path d="M48.0433 52.4567H73.2501C74.482 52.4567 75.5244 50.7584 75.5244 48.6828C75.5244 46.6072 74.482 44.9089 73.2501 44.9089H48.0433C46.8114 44.9089 45.769 46.6072 45.769 48.6828C45.769 50.7584 46.7167 52.4567 48.0433 52.4567Z" fill="#595959"/>
</svg>
