<svg width="188" height="199" viewBox="0 0 188 199" fill="none" xmlns="http://www.w3.org/2000/svg">
<path d="M49.1641 198.479H138.592C143.169 198.479 146.856 194.791 146.856 190.214V8.26465C146.856 3.6873 143.169 0 138.592 0H49.1641C44.5867 0 40.8994 3.6873 40.8994 8.26465V190.214C40.8994 194.749 44.5867 198.479 49.1641 198.479Z" fill="#47BAC6"/>
<path d="M141.982 0.72052C142.448 1.73771 142.703 2.92443 142.703 4.11115V186.061C142.703 190.638 139.015 194.325 134.438 194.325H45.0103C43.7812 194.325 42.6368 194.071 41.6196 193.605C42.9335 196.487 45.8155 198.479 49.1638 198.479H138.592C143.169 198.479 146.856 194.791 146.856 190.214V8.26466C146.856 4.91642 144.864 2.03439 141.982 0.72052Z" fill="#47BAC6"/>
<path d="M79.2982 11.1467H108.458C109.517 11.1467 110.407 10.2567 110.407 9.19711C110.407 8.13754 109.517 7.2475 108.458 7.2475H79.2982C78.2387 7.2475 77.3486 8.13754 77.3486 9.19711C77.3486 10.2991 78.2387 11.1467 79.2982 11.1467Z" fill="#D9F9F8"/>
<path d="M69.5077 11.3586C70.7015 11.3586 71.6692 10.3909 71.6692 9.19711C71.6692 8.00333 70.7015 7.03558 69.5077 7.03558C68.3139 7.03558 67.3462 8.00333 67.3462 9.19711C67.3462 10.3909 68.3139 11.3586 69.5077 11.3586Z" fill="#D9F9F8"/>
<path d="M82.9011 189.239H104.898C106.72 189.239 108.204 187.756 108.204 185.933V183.009C108.204 181.187 106.72 179.703 104.898 179.703H82.9011C81.0786 179.703 79.5952 181.187 79.5952 183.009V185.933C79.5952 187.756 81.0786 189.239 82.9011 189.239Z" fill="#D9F9F8"/>
<path d="M40.8994 18.0127H146.856V172.668H40.8994V18.0127Z" fill="#D9F9F8"/>
<path d="M116.765 133.294C112.187 133.294 108.5 129.607 108.5 125.029V83.2822C108.5 78.7049 112.187 75.0176 116.765 75.0176H179.491C184.069 75.0176 187.756 78.7049 187.756 83.2822V125.029C187.756 129.607 184.069 133.294 179.491 133.294H138.804L123.504 146.856C122.444 147.789 120.749 147.026 120.749 145.627V133.294H116.765Z" fill="#C1EAF4"/>
<path d="M182.67 75.7805C183.094 76.7977 183.348 77.9844 183.348 79.1711V120.918C183.348 125.496 179.873 129.183 175.592 129.183H133.76L120.707 141.516V145.627C120.707 147.068 122.275 147.831 123.292 146.857L137.66 133.294H179.492C183.772 133.294 187.248 129.607 187.248 125.029V83.2823C187.248 79.934 185.383 77.052 182.67 75.7805Z" fill="#A9D8E0"/>
<path d="M70.9912 148.17C75.5686 148.17 79.2559 144.483 79.2559 139.906V98.1586C79.2559 93.5812 75.5686 89.8939 70.9912 89.8939H8.26465C3.6873 89.8939 0 93.5812 0 98.1586V139.906C0 144.483 3.6873 148.17 8.26465 148.17H48.9521L64.2523 161.733C65.3119 162.665 67.0072 161.902 67.0072 160.504V148.17H70.9912Z" fill="#47BAC6"/>
<path d="M73.8308 90.4026C74.636 91.6741 75.1446 93.1999 75.1446 94.8528V136.6C75.1446 141.177 71.4573 144.865 66.88 144.865H62.896V157.198C62.896 158.257 61.9212 158.978 60.9888 158.851L64.2523 161.775C65.3118 162.708 67.0071 161.945 67.0071 160.546V148.213H70.9911C75.5685 148.213 79.2558 144.525 79.2558 139.948V98.201C79.2558 94.5985 77.0095 91.5893 73.8308 90.4026Z" fill="#85DBE8"/>
<path d="M22.1662 105.66C26.4468 101.38 33.3976 101.38 37.6783 105.66L39.6279 107.61L41.5775 105.66C45.8582 101.38 52.8089 101.38 57.0896 105.66C61.3703 109.941 61.3703 116.892 57.0896 121.172L55.14 123.122L40.8146 137.447C40.1789 138.083 39.1193 138.083 38.4835 137.447L24.1581 123.122L22.2085 121.172C17.8855 116.892 17.8855 109.941 22.1662 105.66Z" fill="white"/>
<path d="M57.0896 105.66C56.3691 104.94 55.5639 104.347 54.7162 103.88C57.0896 108.076 56.4963 113.459 52.9361 117.019L50.9865 118.969L36.6611 133.294C36.0254 133.93 34.9658 133.93 34.3301 133.294L38.4836 137.448C39.1193 138.083 40.1789 138.083 40.8146 137.448L55.14 123.122L57.0896 121.172C61.3703 116.892 61.3703 109.941 57.0896 105.66Z" fill="#F1F2F2"/>
<path d="M139.906 103.965L157.876 94.005C156.562 92.9031 155.672 91.3773 155.46 89.5972L137.66 99.3453C138.974 100.49 139.779 102.143 139.906 103.965Z" fill="#47BAC6"/>
<path d="M137.702 109.475L155.503 119.223C155.715 117.485 156.605 115.917 157.919 114.815L139.948 104.855C139.779 106.72 138.974 108.33 137.702 109.475Z" fill="#47BAC6"/>
<path d="M162.284 95.5732C166.076 95.5732 169.15 92.4992 169.15 88.7072C169.15 84.9152 166.076 81.8412 162.284 81.8412C158.492 81.8412 155.418 84.9152 155.418 88.7072C155.418 92.4992 158.492 95.5732 162.284 95.5732Z" fill="#47BAC6"/>
<path d="M166.268 83.1127C167.073 84.2146 167.54 85.6133 167.54 87.0543C167.54 90.8687 164.446 93.9203 160.674 93.9203C159.19 93.9203 157.834 93.4541 156.732 92.6488C157.961 94.4289 160.038 95.5732 162.326 95.5732C166.141 95.5732 169.192 92.4793 169.192 88.7072C169.192 86.3761 168.006 84.3418 166.268 83.1127Z" fill="#47BAC6"/>
<path d="M162.284 126.979C166.076 126.979 169.15 123.905 169.15 120.113C169.15 116.321 166.076 113.247 162.284 113.247C158.492 113.247 155.418 116.321 155.418 120.113C155.418 123.905 158.492 126.979 162.284 126.979Z" fill="#47BAC6"/>
<path d="M166.268 114.518C167.073 115.62 167.54 117.019 167.54 118.46C167.54 122.274 164.446 125.326 160.674 125.326C159.19 125.326 157.834 124.86 156.732 124.054C157.961 125.835 160.038 126.979 162.326 126.979C166.141 126.979 169.192 123.885 169.192 120.113C169.192 117.782 168.006 115.747 166.268 114.518Z" fill="#47BAC6"/>
<path d="M133.082 111.297C136.874 111.297 139.948 108.223 139.948 104.431C139.948 100.639 136.874 97.5652 133.082 97.5652C129.29 97.5652 126.216 100.639 126.216 104.431C126.216 108.223 129.29 111.297 133.082 111.297Z" fill="#47BAC6"/>
<path d="M137.024 98.7943C137.829 99.8963 138.295 101.295 138.295 102.736C138.295 106.55 135.201 109.602 131.429 109.602C129.946 109.602 128.59 109.136 127.488 108.33C128.717 110.111 130.794 111.255 133.082 111.255C136.897 111.255 139.948 108.161 139.948 104.389C139.948 102.1 138.762 100.066 137.024 98.7943Z" fill="#47BAC6"/>
<path d="M62.5146 85.4014C57.9373 85.4014 54.25 81.7141 54.25 77.1367V35.3896C54.25 30.8123 57.9373 27.125 62.5146 27.125H125.241C129.819 27.125 133.506 30.8123 133.506 35.3896V77.1367C133.506 81.7141 129.819 85.4014 125.241 85.4014H101.083L85.7828 98.9639C84.7232 99.8963 83.0279 99.1334 83.0279 97.7348V85.4014H62.5146Z" fill="#85DBE8"/>
<path d="M128.632 27.8455C129.098 28.8627 129.352 30.0494 129.352 31.2361V72.9832C129.352 77.5606 125.665 81.2479 121.088 81.2479H96.9294L83.0278 93.5813V97.6924C83.0278 99.1334 84.7231 99.8963 85.7827 98.9215L101.083 85.359H125.241C129.818 85.359 133.506 81.6717 133.506 77.0943V35.3473C133.506 32.0414 131.514 29.1594 128.632 27.8455Z" fill="#47BAC6"/>
<path d="M75.4841 62.0484C78.3632 62.0484 80.6972 59.7145 80.6972 56.8353C80.6972 53.9562 78.3632 51.6223 75.4841 51.6223C72.605 51.6223 70.271 53.9562 70.271 56.8353C70.271 59.7145 72.605 62.0484 75.4841 62.0484Z" fill="white"/>
<path d="M78.4935 52.5547C79.0869 53.4023 79.4684 54.4619 79.4684 55.5639C79.4684 58.4459 77.1373 60.777 74.2553 60.777C73.1109 60.777 72.0937 60.4379 71.2461 59.8021C72.1785 61.116 73.7467 62.0061 75.4844 62.0061C78.3664 62.0061 80.6974 59.675 80.6974 56.793C80.6974 55.0553 79.8498 53.5295 78.4935 52.5547Z" fill="white"/>
<path d="M96.8753 57.6516C97.3366 54.8096 95.4066 52.1318 92.5646 51.6706C89.7227 51.2094 87.0449 53.1393 86.5837 55.9813C86.1224 58.8233 88.0524 61.501 90.8944 61.9623C93.7363 62.4235 96.4141 60.4935 96.8753 57.6516Z" fill="white"/>
<path d="M94.726 52.5547C95.3193 53.4023 95.7008 54.4619 95.7008 55.5639C95.7008 58.4459 93.3697 60.777 90.4877 60.777C89.3434 60.777 88.3262 60.4379 87.4785 59.8021C88.4109 61.116 89.9791 62.0061 91.7168 62.0061C94.5988 62.0061 96.9299 59.675 96.9299 56.793C96.9299 55.0553 96.0398 53.5295 94.726 52.5547Z" fill="white"/>
<path d="M107.949 62.0484C110.829 62.0484 113.163 59.7145 113.163 56.8353C113.163 53.9562 110.829 51.6223 107.949 51.6223C105.07 51.6223 102.736 53.9562 102.736 56.8353C102.736 59.7145 105.07 62.0484 107.949 62.0484Z" fill="white"/>
<path d="M110.958 52.5547C111.552 53.4023 111.933 54.4619 111.933 55.5639C111.933 58.4459 109.602 60.777 106.72 60.777C105.576 60.777 104.559 60.4379 103.711 59.8021C104.643 61.116 106.212 62.0061 107.949 62.0061C110.831 62.0061 113.162 59.675 113.162 56.793C113.162 55.0553 112.272 53.5295 110.958 52.5547Z" fill="white"/>
</svg>
