<svg width="160" height="208" viewBox="0 0 160 208" fill="none" xmlns="http://www.w3.org/2000/svg">
<path d="M135.201 0H8.05273C3.60254 0 0 3.64492 0 8.09512V161.563C0 166.013 3.60254 169.658 8.09512 169.658H16.275C16.826 169.658 17.377 169.446 17.7584 169.023L142.872 34.9234C143.212 34.542 143.423 34.0758 143.423 33.5248V8.17988C143.423 3.6873 139.736 0 135.201 0Z" fill="#47BAC6"/>
<path d="M159.783 49.9269V175.677C159.783 180.127 156.181 183.772 151.688 183.772H22.2934C17.8432 183.772 14.1982 180.169 14.1982 175.677V23.2258C14.1982 18.7756 17.8008 15.1306 22.2934 15.1306H125.029L128.759 18.8603L159.783 49.9269Z" fill="#D9F9F8"/>
<path d="M159.783 49.927V175.677C159.783 180.127 156.181 183.772 151.688 183.772H22.2934C17.8432 183.772 14.1982 180.169 14.1982 175.677V173.642H143.296C147.789 173.642 151.476 169.997 151.476 165.462V49.927L128.717 18.9027L159.783 49.927Z" fill="#C1EAF4"/>
<path d="M159.783 49.927H151.476H127.657C126.174 49.927 124.987 48.7402 124.987 47.2569V15.1731C125.538 15.1731 126.046 15.385 126.428 15.7664L159.19 48.5283C159.571 48.8674 159.783 49.4184 159.783 49.927Z" fill="#AEC9D6"/>
<path d="M159.784 49.9269H151.476L126.428 15.7664L159.19 48.5283C159.572 48.8674 159.784 49.4183 159.784 49.9269Z" fill="#8FB2BC"/>
<path d="M50.8167 77.0096H123.334C125.029 77.0096 126.385 75.6533 126.385 73.958C126.385 72.2627 125.029 70.9064 123.334 70.9064H50.8167C49.1214 70.9064 47.7651 72.2627 47.7651 73.958C47.7651 75.6533 49.1214 77.0096 50.8167 77.0096Z" fill="#AEC9D6"/>
<path d="M123.334 88.8344H50.8167C49.1214 88.8344 47.7651 90.1906 47.7651 91.8859C47.7651 93.5812 49.1214 94.9375 50.8167 94.9375H123.334C125.029 94.9375 126.385 93.5812 126.385 91.8859C126.385 90.1906 125.029 88.8344 123.334 88.8344Z" fill="#AEC9D6"/>
<path d="M123.334 107.059H109.009C107.313 107.059 105.957 108.415 105.957 110.111C105.957 111.806 107.313 113.162 109.009 113.162H123.334C125.029 113.162 126.386 111.806 126.386 110.111C126.386 108.415 125.029 107.059 123.334 107.059Z" fill="#AEC9D6"/>
<path d="M94.7677 107.059H50.8167C49.1214 107.059 47.7651 108.415 47.7651 110.111C47.7651 111.806 49.1214 113.162 50.8167 113.162H94.7677C96.463 113.162 97.8192 111.806 97.8192 110.111C97.7769 108.415 96.4206 107.059 94.7677 107.059Z" fill="#AEC9D6"/>
<path d="M125.157 168.938C125.157 189.917 108.076 207.04 87.0544 207.04C85.4015 207.04 83.7909 206.955 82.2227 206.743C63.4895 204.327 48.9946 188.307 48.9946 168.98C48.9946 149.611 63.4895 133.591 82.2227 131.217C83.7909 131.005 85.4438 130.92 87.0544 130.92C108.076 130.836 125.157 147.916 125.157 168.938Z" fill="#85DBE8"/>
<path d="M125.156 168.938C125.156 189.917 108.076 207.04 87.0543 207.04C85.4014 207.04 83.7908 206.955 82.2227 206.743C100.956 204.327 115.451 188.307 115.451 168.98C115.451 149.611 100.956 133.591 82.2227 131.217C83.7908 131.005 85.4437 130.92 87.0543 130.92C108.076 130.836 125.156 147.916 125.156 168.938Z" fill="#47BAC6"/>
<path d="M102.482 171.862C101.295 170.676 99.3877 170.676 98.201 171.862L90.1059 179.915V150.586C90.1059 148.891 88.7496 147.535 87.0543 147.535C85.359 147.535 84.0027 148.891 84.0027 150.586V179.915L75.95 171.862C74.7633 170.676 72.8561 170.676 71.6693 171.862C70.4826 173.049 70.4826 174.956 71.6693 176.143L84.9352 189.409C85.5285 190.002 86.2914 190.299 87.0967 190.299C87.8596 190.299 88.6648 190.002 89.2582 189.409L102.524 176.143C103.668 174.956 103.668 173.049 102.482 171.862Z" fill="white"/>
</svg>
