<svg width="157" height="196" viewBox="0 0 157 196" fill="none" xmlns="http://www.w3.org/2000/svg">
<path d="M13.0112 0H136.811V169.446H13.0112V0Z" fill="#47BAC6"/>
<path d="M99.8115 13.0539H0V183.39H101.253C111.255 183.39 119.35 175.592 119.35 166.013V32.5924L99.8115 13.0539Z" fill="#D9F9F8"/>
<path d="M26.0651 42.3404H74.9325C82.1376 42.3404 87.9864 48.1893 87.9864 55.3943V143.381C87.9864 150.586 82.1376 156.435 74.9325 156.435H26.0651C18.8601 156.435 13.0112 150.586 13.0112 143.381V55.3943C13.0112 48.1893 18.8601 42.3404 26.0651 42.3404Z" fill="white"/>
<path d="M35.5589 65.9053C39.702 65.9053 43.0607 62.5466 43.0607 58.4035C43.0607 54.2604 39.702 50.9017 35.5589 50.9017C31.4158 50.9017 28.0571 54.2604 28.0571 58.4035C28.0571 62.5466 31.4158 65.9053 35.5589 65.9053Z" fill="#85DBE8"/>
<path d="M35.5591 65.9053C42.8489 65.9053 48.7401 71.7965 48.7401 79.0863V84.7232H22.4204V79.0863C22.4204 71.7965 28.3116 65.9053 35.5591 65.9053Z" fill="#47BAC6"/>
<path d="M99.8115 13.0539V32.5924H119.35L99.8115 13.0539Z" fill="#85DBE8"/>
<path d="M104.262 172.668H153.129V195.47H104.262V172.668Z" fill="#47BAC6"/>
<path d="M17.377 105.957H83.5789C85.1047 105.957 86.3338 104.728 86.3338 103.202C86.3338 101.676 85.1047 100.447 83.5789 100.447H17.377C15.8512 100.447 14.6221 101.676 14.6221 103.202C14.6221 104.728 15.8512 105.957 17.377 105.957Z" fill="#AEC9D6"/>
<path d="M83.6213 116.765H17.377C15.8512 116.765 14.6221 117.994 14.6221 119.52C14.6221 121.045 15.8512 122.274 17.377 122.274H83.5789C85.1047 122.274 86.3338 121.045 86.3338 119.52C86.3762 117.994 85.1471 116.765 83.6213 116.765Z" fill="#AEC9D6"/>
<path d="M83.6212 133.421H70.5249C68.9991 133.421 67.77 134.65 67.77 136.176C67.77 137.702 68.9991 138.931 70.5249 138.931H83.6212C85.147 138.931 86.3761 137.702 86.3761 136.176C86.3761 134.65 85.147 133.421 83.6212 133.421Z" fill="#AEC9D6"/>
<path d="M57.5135 133.421H17.377C15.8512 133.421 14.6221 134.65 14.6221 136.176C14.6221 137.702 15.8512 138.931 17.377 138.931H57.4711C58.9969 138.931 60.226 137.702 60.226 136.176C60.2684 134.65 59.0393 133.421 57.5135 133.421Z" fill="#AEC9D6"/>
<path d="M153.129 117.273L151.179 111.424C150.204 108.458 146.983 106.805 144.017 107.779C141.685 108.542 140.075 110.746 140.117 113.204V104.262C140.117 100.659 137.193 97.7348 133.59 97.7348H127.063C127.063 94.1322 124.139 91.2078 120.536 91.2078H114.009V78.1539C114.009 74.5514 111.085 71.627 107.483 71.627C103.88 71.627 100.956 74.5514 100.956 78.1539V123.758L94.5134 115.705C90.6565 110.916 84.0024 109.432 78.4927 112.187L74.8901 114.01L87.944 136.812L89.0036 144.271C90.4022 153.934 96.1663 162.453 104.643 167.327L114.009 172.668H146.602C153.002 161.987 156.392 149.823 156.392 137.363C156.392 130.539 155.29 123.758 153.129 117.273Z" fill="#C1EAF4"/>
<path d="M140.118 110.789H143.381V123.843H140.118V110.789Z" fill="#A9D8E0"/>
<path d="M127.064 97.7347H131.768V123.8H127.064V97.7347Z" fill="#A9D8E0"/>
<path d="M114.052 91.2502H119.053V123.843H114.052V91.2502Z" fill="#A9D8E0"/>
</svg>
