<svg width="170" height="170" viewBox="0 0 170 170" fill="none" xmlns="http://www.w3.org/2000/svg">
<path d="M170 29.3033V140.697C170 147.182 164.742 152.439 158.293 152.439H11.7072C5.22268 152.439 0 147.182 0 140.697V29.3033H170Z" fill="#C1EAF4"/>
<path d="M170 11.7074V35.1569H0V11.7074C0 5.22285 5.25773 0.000174245 11.7072 0.000174245H158.258C164.742 -0.0348773 170 5.22285 170 11.7074Z" fill="#47BAC6"/>
<path d="M23.4494 17.561C23.4494 20.7857 20.8205 23.4146 17.5958 23.4146C14.3711 23.4146 11.7422 20.7857 11.7422 17.561C11.7422 14.3362 14.3711 11.7074 17.5958 11.7074C20.8205 11.7074 23.4494 14.3362 23.4494 17.561Z" fill="#D9F9F8"/>
<path d="M46.8991 17.561C46.8991 20.7857 44.2702 23.4146 41.0455 23.4146C37.8208 23.4146 35.1919 20.7857 35.1919 17.561C35.1919 14.3362 37.8208 11.7074 41.0455 11.7074C44.2702 11.7074 46.8991 14.3362 46.8991 17.561Z" fill="#D9F9F8"/>
<path d="M70.3488 17.561C70.3488 20.7857 67.7199 23.4146 64.4952 23.4146C61.2705 23.4146 58.6416 20.7857 58.6416 17.561C58.6416 14.3362 61.2705 11.7074 64.4952 11.7074C67.7199 11.7074 70.3488 14.3362 70.3488 17.561Z" fill="#D9F9F8"/>
<path d="M38.1012 46.8641H131.899C135.124 46.8641 137.753 49.493 137.753 52.7177V164.112C137.753 167.336 135.124 169.965 131.899 169.965H38.1012C34.8764 169.965 32.2476 167.336 32.2476 164.112V52.7528C32.2476 49.493 34.8764 46.8641 38.1012 46.8641Z" fill="#D9F9F8"/>
<path d="M46.8987 87.9095C48.5111 87.9095 49.8431 86.6125 49.8431 84.9651V70.3136H64.4946C66.107 70.3136 67.4389 69.0167 67.4389 67.3692C67.4389 65.7218 66.142 64.4249 64.4946 64.4249H49.8431C46.6183 64.4249 43.9894 67.0538 43.9894 70.2785V84.9301C43.9544 86.6125 45.2864 87.9095 46.8987 87.9095Z" fill="#85DBE8"/>
<path d="M60.7095 77.0435C59.5528 75.9218 57.7301 75.9569 56.6085 77.0785C55.4868 78.2002 55.4518 80.0229 56.5734 81.1796L62.427 87.0332C62.9879 87.594 63.7239 87.8744 64.4951 87.8744H64.7755C65.6518 87.8043 66.4229 87.3136 66.9136 86.5775L78.6559 68.9816C79.2518 68.1053 79.3219 66.9837 78.8312 66.0723C78.3755 65.126 77.4291 64.5301 76.3775 64.46C75.326 64.3899 74.3446 64.8806 73.7487 65.7569L64.0044 80.3734L60.7095 77.0435Z" fill="#85DBE8"/>
<path d="M46.8987 120.157C48.5111 120.157 49.8431 118.86 49.8431 117.213V102.561H64.4946C66.107 102.561 67.4389 101.264 67.4389 99.6167C67.4389 97.9693 66.142 96.6723 64.4946 96.6723H49.8431C46.6183 96.6723 43.9894 99.3012 43.9894 102.526V117.178C43.9544 118.825 45.2864 120.157 46.8987 120.157Z" fill="#85DBE8"/>
<path d="M73.7837 98.0043L64.0394 112.621L60.7095 109.291C59.5528 108.169 57.7301 108.204 56.6085 109.326C55.4868 110.448 55.4518 112.27 56.5734 113.427L62.427 119.281C62.9879 119.841 63.7239 120.122 64.4951 120.122C64.6002 120.122 64.6703 120.122 64.7755 120.122C65.6518 120.052 66.4229 119.561 66.9136 118.825L78.6559 101.229C79.5672 99.8971 79.1817 98.0744 77.8497 97.1631C76.4827 96.2868 74.66 96.6723 73.7837 98.0043Z" fill="#85DBE8"/>
<path d="M67.4041 131.864C67.4041 130.252 66.1072 128.92 64.4597 128.92H49.8082C46.5835 128.92 43.9546 131.549 43.9546 134.773V149.425C43.9546 151.037 45.2515 152.369 46.8989 152.369C48.5463 152.369 49.8433 151.072 49.8433 149.425V134.773H64.4948C66.1072 134.808 67.4041 133.476 67.4041 131.864Z" fill="#85DBE8"/>
<path d="M73.7837 130.252L64.0394 144.868L60.7095 141.538C59.5528 140.417 57.7301 140.452 56.6085 141.573C55.4868 142.695 55.4518 144.518 56.5734 145.674L62.427 151.528C62.9879 152.089 63.7239 152.369 64.4951 152.369C64.6002 152.369 64.6703 152.369 64.7755 152.369C65.6518 152.299 66.4229 151.808 66.9136 151.072L78.6559 133.476C79.5672 132.144 79.1817 130.322 77.8497 129.41C76.4827 128.534 74.66 128.885 73.7837 130.252Z" fill="#85DBE8"/>
<path d="M90.8545 73.2579H111.36C112.972 73.2579 114.304 71.961 114.304 70.3136C114.304 68.6662 113.007 67.3692 111.36 67.3692H90.8545C89.2421 67.3692 87.9102 68.6662 87.9102 70.3136C87.9102 71.961 89.2421 73.2579 90.8545 73.2579Z" fill="#AEC9D6"/>
<path d="M123.102 73.2579H126.046C127.658 73.2579 128.99 71.961 128.99 70.3136C128.99 68.6662 127.693 67.3692 126.046 67.3692H123.102C121.489 67.3692 120.157 68.6662 120.157 70.3136C120.157 71.961 121.489 73.2579 123.102 73.2579Z" fill="#AEC9D6"/>
<path d="M102.596 82.0558C102.596 83.6682 103.893 85.0002 105.541 85.0002H117.248C118.86 85.0002 120.192 83.7033 120.192 82.0558C120.192 80.4084 118.895 79.1115 117.248 79.1115H105.505C103.893 79.1115 102.596 80.4435 102.596 82.0558Z" fill="#AEC9D6"/>
<path d="M90.854 84.9651H93.7983C95.4107 84.9651 96.7427 83.6682 96.7427 82.0208C96.7427 80.3734 95.4458 79.0765 93.7983 79.0765H90.854C89.2416 79.0765 87.9097 80.3734 87.9097 82.0208C87.9097 83.6682 89.2416 84.9651 90.854 84.9651Z" fill="#AEC9D6"/>
<path d="M90.854 105.505H111.359C112.972 105.505 114.303 104.208 114.303 102.561C114.303 100.914 113.007 99.6167 111.359 99.6167H90.854C89.2416 99.6167 87.9097 100.914 87.9097 102.561C87.9097 104.208 89.2416 105.505 90.854 105.505Z" fill="#AEC9D6"/>
<path d="M126.046 99.6167H123.102C121.489 99.6167 120.157 100.914 120.157 102.561C120.157 104.208 121.454 105.505 123.102 105.505H126.046C127.658 105.505 128.99 104.208 128.99 102.561C128.99 100.914 127.658 99.6167 126.046 99.6167Z" fill="#AEC9D6"/>
<path d="M117.248 111.359H105.506C103.893 111.359 102.562 112.656 102.562 114.303C102.562 115.951 103.858 117.248 105.506 117.248H117.213C118.825 117.248 120.157 115.951 120.157 114.303C120.157 112.656 118.86 111.359 117.248 111.359Z" fill="#AEC9D6"/>
<path d="M90.854 117.213H93.7983C95.4107 117.213 96.7427 115.916 96.7427 114.268C96.7427 112.621 95.4458 111.324 93.7983 111.324H90.854C89.2416 111.324 87.9097 112.621 87.9097 114.268C87.9097 115.916 89.2416 117.213 90.854 117.213Z" fill="#AEC9D6"/>
<path d="M90.854 137.753H111.359C112.972 137.753 114.303 136.456 114.303 134.808C114.303 133.161 113.007 131.864 111.359 131.864H90.854C89.2416 131.864 87.9097 133.161 87.9097 134.808C87.9097 136.456 89.2416 137.753 90.854 137.753Z" fill="#AEC9D6"/>
<path d="M126.046 131.864H123.102C121.489 131.864 120.157 133.161 120.157 134.808C120.157 136.456 121.454 137.753 123.102 137.753H126.046C127.658 137.753 128.99 136.456 128.99 134.808C128.99 133.161 127.658 131.864 126.046 131.864Z" fill="#AEC9D6"/>
<path d="M117.248 143.606H105.506C103.893 143.606 102.562 144.903 102.562 146.551C102.562 148.198 103.858 149.495 105.506 149.495H117.213C118.825 149.495 120.157 148.198 120.157 146.551C120.157 144.903 118.86 143.606 117.248 143.606Z" fill="#AEC9D6"/>
<path d="M93.7983 143.606H90.854C89.2416 143.606 87.9097 144.903 87.9097 146.551C87.9097 148.198 89.2066 149.495 90.854 149.495H93.7983C95.4107 149.495 96.7427 148.198 96.7427 146.551C96.7427 144.903 95.4107 143.606 93.7983 143.606Z" fill="#AEC9D6"/>
</svg>
