<?xml version="1.0" standalone="no"?>
<!DOCTYPE svg PUBLIC "-//W3C//DTD SVG 20010904//EN"
 "http://www.w3.org/TR/2001/REC-SVG-20010904/DTD/svg10.dtd">
<svg version="1.0" xmlns="http://www.w3.org/2000/svg"
 width="976.000000pt" height="976.000000pt" viewBox="0 0 976.000000 976.000000"
 preserveAspectRatio="xMidYMid meet">
<metadata>
Created by potrace 1.14, written by Peter Selinger 2001-2017
</metadata>
<g transform="translate(0.000000,976.000000) scale(0.100000,-0.100000)"
fill="#000000" stroke="none">
<path d="M8319 9746 c-2 -3 -34 -8 -69 -12 -36 -3 -72 -10 -81 -15 -9 -4 -18
-6 -21 -4 -3 3 -29 1 -59 -5 -30 -5 -73 -12 -96 -15 -88 -12 -99 -14 -138 -20
-22 -3 -56 -8 -75 -11 -19 -2 -46 -7 -60 -9 -14 -2 -47 -7 -75 -10 -27 -4 -61
-9 -75 -11 -30 -5 -96 -14 -130 -18 -14 -2 -38 -6 -55 -9 -35 -7 -90 -15 -155
-22 -25 -3 -56 -7 -70 -10 -24 -5 -56 -10 -144 -20 -21 -3 -41 -7 -45 -9 -3
-2 -34 -7 -68 -11 -35 -4 -73 -9 -85 -11 -53 -8 -95 -14 -133 -19 -22 -3 -51
-7 -64 -10 -14 -2 -45 -7 -70 -10 -58 -6 -100 -13 -126 -18 -19 -5 -112 -17
-165 -23 -14 -1 -25 -3 -25 -4 0 -1 -13 -3 -30 -5 -16 -2 -43 -6 -60 -9 -16
-3 -55 -8 -85 -11 -30 -4 -61 -8 -68 -11 -8 -2 -37 -7 -65 -10 -55 -7 -82 -11
-82 -14 0 -1 -16 -3 -35 -4 -19 -2 -57 -7 -85 -11 -27 -5 -65 -9 -82 -9 -18
-1 -33 -3 -33 -6 0 -3 -15 -7 -33 -8 -18 -1 -42 -4 -53 -6 -11 -2 -47 -8 -79
-12 -71 -9 -65 -8 -90 -17 -11 -3 -31 -8 -45 -11 -14 -2 -59 -12 -100 -22 -65
-15 -71 -19 -45 -24 l30 -6 -30 -16 c-16 -9 -45 -24 -64 -34 l-34 -17 6 -81
c15 -218 109 -315 432 -445 72 -29 149 -61 172 -72 24 -10 46 -19 49 -19 3 0
21 -7 40 -15 75 -33 183 -78 384 -160 30 -12 107 -44 170 -70 172 -71 391
-161 515 -212 61 -25 124 -51 140 -58 17 -8 64 -27 105 -44 41 -16 93 -37 115
-47 22 -10 42 -18 45 -19 3 -1 23 -9 45 -19 22 -10 47 -19 56 -21 9 -2 25 -8
35 -13 26 -14 72 -33 204 -86 63 -26 124 -51 135 -56 20 -10 76 -32 85 -35 3
0 27 -11 54 -23 27 -12 54 -22 62 -22 7 0 15 -4 18 -9 3 -5 17 -12 31 -15 14
-4 49 -17 78 -30 28 -13 104 -45 167 -70 63 -26 124 -51 135 -57 11 -5 47 -7
80 -4 137 13 213 63 256 170 l24 60 0 905 c0 776 -3 952 -15 968 -2 1 -3 5 -4
10 -17 63 -97 134 -171 150 -45 10 -188 16 -196 8z m-248 -749 c3 -407 -1
-702 -9 -705 -6 -2 -40 10 -76 27 -37 16 -70 31 -74 32 -21 5 -60 21 -84 34
-15 9 -30 16 -33 15 -3 0 -20 6 -38 13 -17 7 -81 33 -142 58 -60 24 -113 49
-117 54 -4 6 -8 7 -8 3 0 -6 -115 40 -199 78 -18 9 -39 17 -45 19 -13 2 -39
13 -121 49 -33 15 -62 27 -65 28 -3 0 -16 5 -30 11 -14 6 -27 11 -30 12 -3 1
-16 6 -30 12 -14 6 -82 34 -153 63 -70 29 -126 55 -123 57 4 4 46 13 91 18 17
2 48 6 70 10 22 4 56 9 75 11 66 8 191 26 269 39 13 2 45 7 70 11 25 3 57 8
71 10 14 2 43 6 65 9 101 13 122 16 149 21 16 4 45 8 65 9 20 2 36 4 36 5 0 1
15 4 33 6 17 2 47 6 65 8 17 2 32 5 32 6 0 2 11 4 25 5 65 6 182 24 186 28 2
1 18 3 38 4 l36 2 1 -62z"/>
<path d="M1529 9715 c-98 -26 -204 -100 -295 -206 -27 -31 -86 -134 -103 -179
-8 -19 -20 -48 -27 -65 -7 -16 -22 -73 -33 -125 -20 -95 -21 -110 -18 -3100 1
-1653 6 -3018 10 -3035 4 -16 10 -46 14 -65 31 -166 108 -361 192 -489 67
-102 203 -229 248 -232 5 0 13 -5 19 -10 6 -5 33 -12 60 -15 27 -3 58 -9 69
-14 11 -4 65 -23 120 -40 55 -18 109 -36 120 -41 11 -4 63 -22 115 -39 52 -17
103 -35 112 -40 10 -6 25 -10 33 -10 8 0 23 -4 33 -10 9 -5 114 -41 232 -80
118 -39 222 -74 230 -77 8 -4 17 -7 20 -8 20 -5 89 -28 105 -35 11 -5 94 -34
185 -64 270 -90 434 -146 455 -155 11 -5 56 -21 100 -35 107 -34 235 -77 260
-87 27 -11 271 -93 370 -125 44 -14 89 -30 100 -35 11 -5 54 -20 95 -33 41
-14 122 -41 180 -61 58 -20 110 -38 115 -39 6 -2 17 -6 25 -9 21 -9 372 -127
390 -132 17 -5 98 -33 120 -42 8 -3 20 -7 25 -8 6 -2 43 -14 83 -28 39 -14 72
-23 72 -20 0 3 6 1 13 -4 6 -6 116 -45 242 -87 127 -43 237 -80 245 -83 8 -4
17 -7 20 -8 3 0 30 -9 60 -20 30 -10 60 -20 65 -21 8 -2 250 -87 305 -107 8
-3 60 -20 115 -38 55 -17 105 -34 110 -38 6 -3 15 -6 20 -7 10 -2 186 -60 215
-71 8 -3 20 -7 25 -9 6 -1 51 -16 100 -34 50 -17 95 -33 100 -34 6 -2 17 -6
25 -9 8 -3 51 -18 95 -32 44 -15 87 -29 95 -32 8 -4 18 -7 23 -8 4 -2 8 -3 10
-5 1 -1 9 -3 17 -5 8 -2 62 -20 120 -40 58 -20 112 -38 120 -40 18 -5 127 -43
155 -55 21 -9 216 -74 225 -75 3 0 10 -3 16 -7 6 -4 21 -9 35 -12 13 -3 44
-13 69 -22 93 -34 162 -27 276 28 166 80 328 311 360 513 3 22 8 43 10 47 3 4
8 35 11 70 9 83 7 5668 -1 5733 -13 97 -38 203 -67 290 -65 196 -189 384 -304
462 -38 26 -139 62 -185 66 -20 2 -40 6 -45 9 -6 3 -48 20 -95 38 -47 18 -125
48 -175 67 -49 19 -119 46 -155 60 -36 13 -74 29 -85 33 -11 5 -92 37 -180 70
-162 61 -196 75 -227 91 -10 5 -22 9 -27 9 -5 0 -26 8 -47 17 -22 9 -45 18
-52 19 -7 1 -33 12 -58 23 -24 12 -48 21 -52 21 -5 0 -57 20 -115 44 -59 24
-107 42 -107 39 0 -3 -6 -1 -12 4 -7 5 -38 19 -68 30 -30 12 -64 25 -75 29
-11 4 -22 8 -25 9 -3 1 -18 7 -35 14 -16 6 -55 21 -85 33 -30 12 -60 25 -66
29 -6 5 -19 10 -30 12 -10 2 -28 8 -39 12 -42 17 -180 69 -185 70 -14 4 -67
26 -82 35 -10 6 -23 10 -30 10 -7 0 -25 6 -40 14 -14 8 -43 19 -65 26 -21 7
-56 21 -78 30 -58 26 -384 151 -395 152 -3 0 -14 5 -25 11 -11 6 -22 11 -25
12 -5 0 -153 57 -195 75 -11 4 -81 31 -155 60 -74 29 -144 56 -155 60 -26 11
-159 62 -375 145 -96 38 -181 72 -187 78 -7 5 -13 7 -13 4 0 -5 -41 9 -95 33
-18 8 -88 35 -470 182 -71 27 -144 56 -162 64 -17 8 -33 14 -36 14 -6 0 -376
143 -412 160 -11 4 -69 27 -130 50 -60 22 -119 45 -130 50 -11 4 -69 27 -130
50 -132 50 -137 52 -197 79 -26 12 -52 21 -58 21 -5 0 -24 7 -42 15 -18 8 -64
26 -103 41 -38 14 -85 33 -104 41 -18 8 -39 16 -45 17 -6 1 -28 10 -50 19 -21
9 -40 17 -42 17 -5 0 -176 66 -214 82 -165 70 -199 77 -291 53z m442 -966 c57
-22 113 -44 124 -49 18 -7 53 -21 65 -25 6 -2 41 -16 120 -48 30 -12 57 -22
60 -23 3 0 18 -6 33 -12 16 -7 31 -12 34 -12 3 0 19 -6 36 -14 33 -15 314
-125 332 -130 6 -2 24 -8 40 -15 17 -6 66 -25 110 -42 44 -17 98 -39 120 -49
22 -9 51 -21 65 -25 14 -4 39 -13 55 -20 33 -14 67 -28 75 -29 15 -4 112 -42
158 -63 29 -12 55 -23 59 -23 5 0 219 -82 298 -115 11 -5 22 -9 25 -9 16 -4
107 -41 115 -46 6 -4 21 -11 35 -15 35 -10 147 -53 197 -76 24 -10 46 -19 50
-19 4 0 77 -27 163 -61 190 -75 303 -119 395 -153 39 -15 78 -31 89 -37 10 -6
26 -12 35 -14 14 -3 220 -81 279 -106 49 -20 73 -30 217 -85 83 -31 164 -62
180 -69 92 -38 140 -58 150 -60 5 -1 19 -6 30 -10 11 -5 43 -17 70 -27 28 -10
59 -23 70 -27 37 -16 240 -95 250 -97 6 -2 80 -30 165 -64 85 -34 165 -64 178
-67 12 -3 25 -9 28 -14 3 -5 11 -9 18 -9 8 0 31 -8 52 -17 22 -9 41 -17 44
-18 3 -1 14 -5 25 -10 11 -4 58 -23 105 -41 47 -18 146 -56 220 -85 74 -29
140 -54 145 -55 6 -1 54 -20 108 -42 53 -23 97 -38 97 -35 0 3 6 1 13 -5 6 -5
50 -24 97 -42 47 -17 94 -35 105 -40 11 -5 81 -32 155 -61 74 -28 142 -55 151
-60 9 -4 24 -36 35 -71 17 -60 18 -173 19 -2776 l0 -2713 -34 6 c-18 4 -41 10
-50 15 -9 5 -47 19 -86 31 -38 12 -74 24 -80 28 -5 3 -15 6 -22 7 -16 3 -193
63 -218 75 -11 5 -29 11 -40 12 -11 2 -31 9 -45 14 -14 6 -56 20 -95 33 -38
12 -79 26 -90 30 -33 14 -293 102 -307 104 -7 1 -18 4 -23 8 -10 6 -126 46
-155 54 -8 2 -40 12 -70 23 -109 39 -825 283 -845 288 -11 2 -30 9 -42 14 -45
18 -69 26 -108 38 -22 7 -49 16 -60 21 -39 16 -330 113 -342 113 -7 0 -13 4
-13 9 0 4 -9 8 -20 8 -12 0 -34 7 -50 15 -17 9 -32 15 -35 14 -7 -1 -167 52
-180 60 -5 3 -14 6 -20 7 -5 1 -66 21 -135 44 -69 24 -204 69 -300 102 -96 32
-181 61 -188 63 -7 2 -16 5 -20 6 -4 1 -18 6 -32 11 -14 6 -110 39 -215 75
-104 35 -197 67 -205 70 -8 3 -21 8 -27 10 -7 1 -19 5 -25 6 -7 2 -24 8 -38
14 -28 11 -360 124 -375 128 -5 1 -21 6 -35 12 -14 5 -90 31 -170 58 -80 26
-154 51 -165 56 -47 18 -142 50 -164 55 -14 3 -29 8 -35 12 -6 3 -15 7 -21 8
-5 2 -143 48 -305 104 -162 56 -299 102 -305 104 -5 1 -14 4 -20 7 -5 3 -39
14 -74 25 -75 22 -85 36 -112 136 -19 71 -19 141 -20 2883 0 3230 -1 2855 9
2855 5 0 55 -18 113 -41z"/>
</g>
</svg>
